<?xml version="1.0" standalone="no"?><!DOCTYPE svg PUBLIC "-//W3C//DTD SVG 1.1//EN" "http://www.w3.org/Graphics/SVG/1.1/DTD/svg11.dtd"><svg t="1703663496010" class="icon" viewBox="0 0 1024 1024" version="1.1" xmlns="http://www.w3.org/2000/svg" p-id="15078" xmlns:xlink="http://www.w3.org/1999/xlink" width="200" height="200"><path d="M512 512m-512 0a512 512 0 1 0 1024 0 512 512 0 1 0-1024 0Z" fill="#F0F4FF" p-id="15079"></path><path d="M512 1024a512 512 0 1 1 512-512 512 512 0 0 1-512 512z m0-1002.666667a490.666667 490.666667 0 1 0 490.666667 490.666667A490.666667 490.666667 0 0 0 512 21.333333z" fill="#A3BBFF" p-id="15080"></path><path d="M234.666667 426.666667h554.666666v277.333333a42.666667 42.666667 0 0 1-42.666666 42.666667H277.333333a42.666667 42.666667 0 0 1-42.666666-42.666667V426.666667z m166.058666 77.802666a68.821333 68.821333 0 0 0-40.533333 11.093334 36.096 36.096 0 0 0-17.066667 31.765333 33.664 33.664 0 0 0 17.493334 30.698667 247.786667 247.786667 0 0 0 34.965333 12.8 287.296 287.296 0 0 1 29.632 10.026666 21.610667 21.610667 0 0 1 14.293333 19.2 17.28 17.28 0 0 1-9.813333 15.146667 54.186667 54.186667 0 0 1-26.432 5.546667 47.765333 47.765333 0 0 1-27.733333-6.613334 35.776 35.776 0 0 1-12.373334-24.725333h-24.682666a51.904 51.904 0 0 0 20.885333 42.432 76.437333 76.437333 0 0 0 43.925333 10.88 76.522667 76.522667 0 0 0 45.205334-11.733333 38.229333 38.229333 0 0 0 16-32.405334 36.501333 36.501333 0 0 0-19.84-32.832 238.933333 238.933333 0 0 0-39.872-14.933333 214.613333 214.613333 0 0 1-26.005334-9.386667 17.28 17.28 0 0 1-10.666666-15.573333 16.256 16.256 0 0 1 9.386666-15.786667 46.933333 46.933333 0 0 1 21.952-4.053333 41.344 41.344 0 0 1 25.152 6.186667 33.258667 33.258667 0 0 1 11.733334 20.245333h24.725333a48.810667 48.810667 0 0 0-18.346667-36.885333 69.269333 69.269333 0 0 0-41.984-11.093334z m138.88 0a68.821333 68.821333 0 0 0-40.533333 11.093334 36.096 36.096 0 0 0-17.066667 31.765333 33.664 33.664 0 0 0 17.493334 30.698667 247.786667 247.786667 0 0 0 34.965333 12.8 287.296 287.296 0 0 1 29.632 10.026666 21.610667 21.610667 0 0 1 14.293333 19.2 17.28 17.28 0 0 1-9.813333 15.146667 54.186667 54.186667 0 0 1-26.432 5.546667 47.765333 47.765333 0 0 1-27.733333-6.613334 35.776 35.776 0 0 1-12.373334-24.725333h-24.682666a51.904 51.904 0 0 0 20.906666 42.432 76.437333 76.437333 0 0 0 43.925334 10.88 76.522667 76.522667 0 0 0 45.205333-11.733333 38.229333 38.229333 0 0 0 16-32.405334 36.501333 36.501333 0 0 0-19.818667-32.832 238.933333 238.933333 0 0 0-39.872-14.933333 214.613333 214.613333 0 0 1-26.005333-9.386667 17.28 17.28 0 0 1-10.666667-15.573333 16.256 16.256 0 0 1 9.386667-15.786667 46.933333 46.933333 0 0 1 21.973333-4.053333 41.344 41.344 0 0 1 25.152 6.186667 33.258667 33.258667 0 0 1 11.733334 20.245333h24.725333a48.810667 48.810667 0 0 0-18.325333-36.885333 69.269333 69.269333 0 0 0-42.069334-11.093334z m85.141334 2.986667v152.234667H731.733333v-21.333334h-82.24v-130.901333h-24.725333z" fill="#6C8DEB" p-id="15081"></path><path d="M277.333333 298.666667h469.333334a42.666667 42.666667 0 0 1 42.666666 42.666666v64H234.666667v-64a42.666667 42.666667 0 0 1 42.666666-42.666666z m0 42.666666h85.333334v42.666667h-85.333334v-42.666667z m128 0h85.333334v42.666667h-85.333334v-42.666667z m128 0h85.333334v42.666667h-85.333334v-42.666667z" fill="#AEC0F5" p-id="15082"></path></svg>