<?xml version="1.0" standalone="no"?><!DOCTYPE svg PUBLIC "-//W3C//DTD SVG 1.1//EN" "http://www.w3.org/Graphics/SVG/1.1/DTD/svg11.dtd"><svg t="1703663227596" class="icon" viewBox="0 0 1024 1024" version="1.1" xmlns="http://www.w3.org/2000/svg" p-id="6363" xmlns:xlink="http://www.w3.org/1999/xlink" width="200" height="200"><path d="M510.976 502.272m-441.344 0a441.344 441.344 0 1 0 882.688 0 441.344 441.344 0 1 0-882.688 0Z" fill="#BDBFF3" p-id="6364"></path><path d="M519.68 1015.296a495.616 495.616 0 0 1-194.048-38.912 496.128 496.128 0 0 1-264.704-265.216 489.984 489.984 0 0 1-39.424-193.536 499.2 499.2 0 0 1 145.92-352.256 506.88 506.88 0 0 1 158.208-106.496A498.176 498.176 0 0 1 870.4 165.376a500.736 500.736 0 0 1 106.496 158.208 497.152 497.152 0 0 1 0 388.096 497.152 497.152 0 0 1-264.704 264.704 494.08 494.08 0 0 1-194.048 38.912z m0-912.896a415.232 415.232 0 1 0 415.232 415.232A415.232 415.232 0 0 0 519.68 102.4z m0 0" fill="#464DEE" p-id="6365"></path><path d="M405.504 721.408a114.176 114.176 0 1 0 114.176-114.176 114.176 114.176 0 0 0-114.176 114.176z m0 0" fill="#464DEE" p-id="6366"></path><path d="M519.68 716.8a41.472 41.472 0 0 1-41.472-41.472V435.712a41.472 41.472 0 0 1 82.944 0v238.08a41.472 41.472 0 0 1-41.472 41.472z m0 0" fill="#464DEE" p-id="6367"></path><path d="M241.152 470.016a43.52 43.52 0 0 1-11.776 0 41.472 41.472 0 0 1-28.16-51.2 335.872 335.872 0 0 1 117.76-173.056 333.824 333.824 0 0 1 401.408 0 336.896 336.896 0 0 1 118.272 171.008 41.472 41.472 0 0 1-79.872 23.552 248.832 248.832 0 0 0-477.184 0 42.496 42.496 0 0 1-40.448 29.696z m0 0" fill="#464DEE" p-id="6368"></path></svg>