<?xml version="1.0" standalone="no"?><!DOCTYPE svg PUBLIC "-//W3C//DTD SVG 1.1//EN" "http://www.w3.org/Graphics/SVG/1.1/DTD/svg11.dtd"><svg t="1702953766404" class="icon" viewBox="0 0 1024 1024" version="1.1" xmlns="http://www.w3.org/2000/svg" p-id="7939" xmlns:xlink="http://www.w3.org/1999/xlink" width="200" height="200"><path d="M945.9 493.8c-2.2-1.9-47.8-40.9-112.1-40.9h-2.3c-11.9-23.2-35.1-55.2-79.7-83.5-14.3-9-32.9-7-44.8 5-2.3 2.3-22.6 23.2-37.7 56-15.3 33.1-19.9 66.7-13.8 98.8-2.3 0.5-5.6 1-10 1.5h-523c-27.7 0-50.9 20.8-54 48.3-1.3 11.1-1.9 21.5-1.9 30.9 0 38.6 7.3 75 21.6 108.4 14.4 33.5 35.6 63.3 63 88.4 55.3 50.7 133.7 80.3 226.8 85.7h0.4c0.6 0 3.8 0.2 9.3 0.2 23.8 0 90.2-2.6 166.4-27.8 55.5-18.4 104.9-45 146.9-79.2 46.9-38.2 84.4-85.6 111.7-141.3 10.9-1 24.2-3.4 38.6-8.3 32.2-11 76.4-37.4 104.1-100.6 6.1-14.4 2.3-31.3-9.5-41.6z m-115.5 73.1c-18.8 7.1-34.7 6.1-36.7 5.9-16.1-2.4-31 6.5-37.5 21.6-23 53.8-56.6 99-99.7 134.4-34.8 28.6-76.2 51.1-122.9 66.8-79.6 26.9-148.5 25-151.9 24.8-150-8.8-243.2-89.5-243.2-210.7 0-2.3 0.1-4.7 0.2-7.2h508.7c1.2 0 2.5-0.1 3.7-0.2 20.1-2.1 30.3-5.4 37.5-8.4l23.8-8.4c9.6-3.4 17.4-10.7 21.3-20.2 3.9-9.4 3.6-20.1-0.8-29.3-11-22.9-10.6-47.8 0.9-74 1.9-4.2 3.9-8.2 5.9-11.8 25.7 23.7 32 44.9 32.9 48.2 1.5 9.7 6.8 17.7 14.9 23.3 8.2 5.7 18.2 7 28 4.9 22.6-4.8 43.1 0.3 58.1 6.8-11.6 15.9-26.1 27.1-43.2 33.5zM132.8 501.1h70c11 0 20-9 20-20v-70c0-11-9-20-20-20h-70c-11 0-20 9-20 20v70c0 11 9 20 20 20z" p-id="7940"></path><path d="M265.2 501.1h70c11 0 20-9 20-20v-70c0-11-9-20-20-20h-70c-11 0-20 9-20 20v70c0 11 8.9 20 20 20zM399 501.1h70c11 0 20-9 20-20v-70c0-11-9-20-20-20h-70c-11 0-20 9-20 20v70c0 11 9 20 20 20zM265.2 370.2h70c11 0 20-9 20-20v-70c0-11-9-20-20-20h-70c-11 0-20 9-20 20v70c0 11 8.9 20 20 20zM399 370.2h70c11 0 20-9 20-20v-70c0-11-9-20-20-20h-70c-11 0-20 9-20 20v70c0 11 9 20 20 20zM399 239.5h70c11 0 20-9 20-20v-70c0-11-9-20-20-20h-70c-11 0-20 9-20 20v70c0 11 9 20 20 20zM532.3 501.1h70c11 0 20-9 20-20v-70c0-11-9-20-20-20h-70c-11 0-20 9-20 20v70c0 11 8.9 20 20 20z" p-id="7941"></path><path d="M250.7 678.1m-36 0a36 36 0 1 0 72 0 36 36 0 1 0-72 0Z" p-id="7942"></path></svg>