<?xml version="1.0" standalone="no"?><!DOCTYPE svg PUBLIC "-//W3C//DTD SVG 1.1//EN" "http://www.w3.org/Graphics/SVG/1.1/DTD/svg11.dtd"><svg t="1697973726572" class="icon" viewBox="0 0 1024 1024" version="1.1" xmlns="http://www.w3.org/2000/svg" p-id="41551" xmlns:xlink="http://www.w3.org/1999/xlink" width="200" height="200"><path d="M799.898 924.846h-578.96c-68.786 0-124.748-55.961-124.748-124.747v-351.89c0-17.673 14.327-32 32-32 17.673 0 32 14.327 32 32v351.89c0 33.496 27.251 60.747 60.748 60.747h578.961c33.497 0 60.748-27.251 60.748-60.747V221.138c0-33.496-27.251-60.748-60.748-60.748H523.666c-17.673 0-32-14.327-32-32 0-17.673 14.327-32 32-32h276.232c68.786 0 124.748 55.961 124.748 124.748v578.961c0 68.786-55.961 124.747-124.748 124.747z" fill="" p-id="41552"></path><path d="M232.209 408.786l329.045 300.282 74.166-441.631-141.607 49.641 19.429 55.971 59.498-20.857-44.064 262.381-195.492-178.402 60.206-21.107-19.424-55.973z" fill="" p-id="41553"></path><path d="M64.76 68.961l84.603 47.608c1.292 0.729 130.455 74.128 178.97 153.607 34.432 56.405 44.308 97.202 47.131 116.502 0.823 5.632 0.909 8.687 0.91 8.739-0.006-0.27-0.003-0.406-0.003-0.406l43.63 10.768c-0.001-1.711-0.125-8.119-1.678-18.739-3.677-25.141-16.052-77.479-57.608-145.556-27.611-45.233-73.737-86.768-114.837-118.069 47.059 6.501 102.99 21.747 139.182 56.684 37.634 36.33 63.957 84.094 79.411 117.765 17.174 37.419 25.207 66.414 25.286 66.703l40.968-8.697c-1.475-5.435-37.13-134.095-124.015-217.967-37.48-36.183-92.526-59.666-163.61-69.796-51.345-7.317-91.998-4.784-93.704-4.673L64.76 68.961z" fill="" p-id="41554"></path><path d="M577.977 352.122l-18.993-56.121-83.291 27.893 18.993 56.121zM367.084 361.611l33.81-11.586 19.17 55.938-33.81 11.586z" fill="" p-id="41555"></path></svg>