<?xml version="1.0" standalone="no"?><!DOCTYPE svg PUBLIC "-//W3C//DTD SVG 1.1//EN" "http://www.w3.org/Graphics/SVG/1.1/DTD/svg11.dtd"><svg t="1697973775775" class="icon" viewBox="0 0 1024 1024" version="1.1" xmlns="http://www.w3.org/2000/svg" p-id="42526" xmlns:xlink="http://www.w3.org/1999/xlink" width="200" height="200"><path d="M743.225806 726.709677v-165.16129a33.032258 33.032258 0 0 1 66.064517 0v165.16129h165.16129a33.032258 33.032258 0 0 1 0 66.064517h-165.16129v165.16129a33.032258 33.032258 0 0 1-66.064517 0v-165.16129h-165.16129a33.032258 33.032258 0 0 1 0-66.064517h165.16129z m-293.095225-162.122322C253.852903 588.106323 99.62529 745.604129 83.901935 941.419355H594.580645a33.032258 33.032258 0 0 1 0 66.064516H49.548387a33.032258 33.032258 0 0 1-33.032258-33.032258c0-202.818065 127.504516-376.138323 307.596387-446.001548a280.774194 280.774194 0 1 1 126.018065 36.13729z m-1.981936-66.26271A495.582968 495.582968 0 0 1 500.174452 495.483871 214.775742 214.775742 0 0 0 462.451613 69.367742a214.709677 214.709677 0 0 0-14.302968 428.956903z" fill="#666666" p-id="42527"></path></svg>