<?xml version="1.0" standalone="no"?><!DOCTYPE svg PUBLIC "-//W3C//DTD SVG 1.1//EN" "http://www.w3.org/Graphics/SVG/1.1/DTD/svg11.dtd"><svg t="1703663390983" class="icon" viewBox="0 0 1024 1024" version="1.1" xmlns="http://www.w3.org/2000/svg" p-id="12006" xmlns:xlink="http://www.w3.org/1999/xlink" width="200" height="200"><path d="M170.666667 995.555556a375.466667 28.444444 0 1 0 750.933333 0 375.466667 28.444444 0 1 0-750.933333 0Z" fill="#7DA7FF" opacity=".1" p-id="12007"></path><path d="M510.793956 0c85.014756 90.817422 212.525511 136.226133 382.498133 136.226133 11.195733 265.739378-13.585067 454.724267-74.331022 566.954667-60.757333 112.219022-180.451556 196.4032-359.094045 252.552533-88.484978-56.376889-161.405156-140.572444-218.771911-252.563911-86.050133-167.981511-61.895111-360.413867-61.895111-538.4192C306.551467 145.339733 405.048889 103.332978 474.680889 38.729956 476.7744 36.772978 459.867022 0 459.867022 0h50.926934z" fill="#4F88FF" p-id="12008"></path><path d="M459.867022 0c85.026133 90.817422 212.525511 136.226133 382.509511 136.226133 11.184356 265.739378-13.596444 454.724267-74.3424 566.954667C707.2768 815.388444 604.558222 899.572622 459.867022 955.733333c-122.436267-56.376889-212.332089-140.572444-269.698844-252.563911-86.038756-167.981511-61.895111-360.413867-61.895111-538.4192C279.506489 141.698844 390.030222 86.778311 459.867022 0z" fill="#7DA7FF" p-id="12009"></path><path d="M483.271111 133.597867c55.136711 67.3792 147.490133 101.0688 277.048889 101.0688 8.533333 197.165511-10.353778 337.373867-56.661333 420.636444-46.307556 83.262578-132.7104 145.726578-259.208534 187.392-67.436089-41.836089-123.016533-104.300089-166.741333-187.392-65.592889-124.632178-47.183644-267.400533-47.183644-399.473778 97.0752-14.404267 172.145778-45.568 225.211733-93.502577 1.604267-1.444978-3.527111-28.728889-3.527111-28.728889h31.061333z" fill="#1651CA" p-id="12010"></path><path d="M452.209778 133.597867c64.807822 67.3792 161.9968 101.0688 291.555555 101.0688 8.533333 197.165511-10.353778 337.373867-56.661333 420.636444-46.307556 83.262578-124.598044 145.726578-234.894222 187.392-93.320533-41.836089-161.837511-104.300089-205.562311-187.392-65.581511-124.632178-47.172267-267.400533-47.172267-399.473778 115.256889-17.1008 199.509333-57.844622 252.734578-122.231466z" fill="#296FFF" p-id="12011"></path><path d="M334.563556 456.851911a25.691022 25.691022 0 0 1 34.975288-2.548622l1.3312 1.137778 63.067023 58.390755 143.587555-132.9152a25.691022 25.691022 0 0 1 35.077689 0.147911l1.240178 1.251556a25.691022 25.691022 0 0 1-0.159289 35.066311l-1.251556 1.251556-161.041066 149.048888c-9.398044 8.715378-23.677156 9.102222-33.530311 1.194667l-1.365334-1.183289-80.531911-74.535822a25.691022 25.691022 0 0 1-1.399466-36.306489z" fill="#FFFFFF" p-id="12012"></path></svg>