<?xml version="1.0" standalone="no"?><!DOCTYPE svg PUBLIC "-//W3C//DTD SVG 1.1//EN" "http://www.w3.org/Graphics/SVG/1.1/DTD/svg11.dtd"><svg t="1703663140224" class="icon" viewBox="0 0 1084 1024" version="1.1" xmlns="http://www.w3.org/2000/svg" p-id="4376" xmlns:xlink="http://www.w3.org/1999/xlink" width="211.71875" height="200"><path d="M786.672941 779.444706c-3.132235 2.831059-4.577882 3.192471-7.830588 0-33.792-34.213647-67.824941-68.126118-101.978353-102.038588-3.011765-3.011765-3.915294-4.457412-0.120471-8.07153 50.778353-49.031529 72.402824-109.025882 62.042353-178.778353-9.938824-66.620235-46.381176-115.952941-105.291294-148.781176-3.734588-2.168471-4.336941-3.132235-1.445647-6.625883 16.263529-19.937882 32.346353-40.116706 48.188235-60.235294 2.770824-3.493647 4.939294-4.096 8.914824-2.409411a132.517647 132.517647 0 0 0 67.945412 9.155764 141.071059 141.071059 0 0 0 123.723294-161.972706C867.629176 31.804235 775.951059-22.106353 692.525176 8.794353c-101.014588 37.345882-124.807529 168.598588-43.429647 239.314823 3.252706 2.891294 3.011765 4.336941 0.481883 7.348706-17.648941 21.684706-35.117176 43.429647-52.404706 65.536-2.891294 3.614118-5.300706 4.216471-9.517177 3.132236a200.282353 200.282353 0 0 0-103.062588 0.963764 201.607529 201.607529 0 0 0-87.943529 50.236236c-1.746824 1.566118-2.831059 4.457412-6.324706 1.807058-15.480471-11.866353-31.141647-23.431529-46.742588-35.237647l5.12-7.107764c17.347765-25.479529 24.576-53.729882 20.841411-84.148706-7.469176-60.958118-54.392471-104.809412-115.651764-109.086118-75.776-5.421176-139.926588 63.006118-129.807059 138.300235a123.602824 123.602824 0 0 0 188.777412 89.328942c3.252706-1.927529 5.059765-1.445647 7.830588 0.602353 15.179294 11.565176 30.418824 23.009882 45.839059 34.273882 3.373176 2.409412 2.770824 4.096 0.963764 6.987294-36.743529 59.632941-42.345412 122.157176-16.865882 187.331765 1.445647 3.614118 0.963765 5.541647-1.927529 8.071529-43.730824 38.610824-87.401412 77.221647-130.95153 116.073412-3.132235 2.770824-5.300706 3.252706-9.216 1.084235a136.794353 136.794353 0 0 0-83.124706-16.624941 141.432471 141.432471 0 0 0-123.482353 164.141177c12.649412 77.462588 88.244706 130.831059 164.74353 115.350588 53.007059-10.601412 90.172235-41.863529 107.64047-93.003294 17.468235-51.079529 7.408941-98.243765-27.828705-139.565177-3.794824-4.336941-2.831059-6.023529 0.843294-9.155765 28.912941-25.479529 57.825882-51.2 86.738823-76.739764l36.562824-32.346353c0.722824 0.963765 1.325176 1.566118 1.807059 2.16847 62.885647 86.618353 173.357176 111.013647 267.324235 58.910118 3.252706-1.807059 4.758588-1.084235 6.927059 1.204706 36.562824 36.743529 73.246118 73.487059 110.049882 110.049882 2.891294 2.891294 3.373176 4.698353 1.325176 8.553412-13.854118 25.720471-19.094588 53.248-15.841882 82.221177 9.336471 80.956235 83.305412 136.372706 164.261647 123.301647 79.450353-12.769882 132.758588-93.364706 113.603765-171.670589a141.251765 141.251765 0 0 0-233.411765-71.017411z" fill="#6E85FF" p-id="4377"></path><path d="M625.362824 376.470588l-45.95953-38.972235L710.535529 180.705882l45.95953 38.972236zM443.331765 418.394353l-43.369412 41.863529c-2.891294-3.011765-42.345412-34.454588-108.905412-86.377411l37.044706-47.465412c73.788235 57.584941 109.025882 85.654588 115.169882 91.979294zM404.901647 542.117647l38.972235 45.959529-224.195764 190.102589L180.705882 732.220235zM602.352941 705.174588l42.586353-42.586353 201.968941 201.968941-42.586353 42.586353z" fill="#6E85FF" p-id="4378"></path></svg>