<?xml version="1.0" standalone="no"?><!DOCTYPE svg PUBLIC "-//W3C//DTD SVG 1.1//EN" "http://www.w3.org/Graphics/SVG/1.1/DTD/svg11.dtd"><svg t="1703663354167" class="icon" viewBox="0 0 1073 1024" version="1.1" xmlns="http://www.w3.org/2000/svg" p-id="9890" xmlns:xlink="http://www.w3.org/1999/xlink" width="209.5703125" height="200"><path d="M523.976602 701.917483h-60.780258l-40.99232-41.013461a26.827877 26.827877 0 1 0-37.926882 37.926881l3.065439 3.065439h-118.177963a263.670046 263.670046 0 0 1-26.806736-526.409889 327.684871 327.684871 0 0 1 294.979806-175.469963 334.915079 334.915079 0 0 1 330.708029 263.183804 225.003231 225.003231 0 0 1 205.59583 219.295172A219.316313 219.316313 0 0 1 850.139324 701.917483H599.809224l79.532289-79.532289a26.827877 26.827877 0 0 0-37.926881-37.926881L523.976602 701.917483z" fill="#9AB3FF" p-id="9891"></path><path d="M506.450747 659.635565l105.070568-105.070569a69.088655 69.088655 0 1 1 97.713514 97.671233l-7.335912 7.399336h148.240407a177.288086 177.288086 0 0 0 181.220304-177.118958 174.539761 174.539761 0 0 0-49.300717-120.017227 181.685405 181.685405 0 0 0-117.332325-57.08059l-31.563452-2.473493-6.511416-30.992646a287.517048 287.517048 0 0 0-100.356134-163.356194 293.859336 293.859336 0 0 0-86.233974-48.624206 303.478472 303.478472 0 0 0-102.766203-17.673842A285.043556 285.043556 0 0 0 280.073353 194.724726l-10.168801 19.957066-22.219148 2.811747a240.18244 240.18244 0 0 0-146.887386 73.845372 216.948525 216.948525 0 0 0 8.60437 303.034512 226.757931 226.757931 0 0 0 159.76223 65.262142H337.153944a69.130937 69.130937 0 0 1 114.943396-28.603719L480.701058 659.635565h25.749689m17.504714 42.281918h-60.759117l-40.99232-41.013461a26.827877 26.827877 0 1 0-37.926882 37.926881l3.065439 3.065439h-118.177963a263.670046 263.670046 0 0 1-26.806736-526.409889 327.684871 327.684871 0 0 1 294.979806-175.469963 334.915079 334.915079 0 0 1 330.708029 263.183804 225.003231 225.003231 0 0 1 205.59583 219.274031A219.316313 219.316313 0 0 1 850.139324 701.917483H599.809224l79.532289-79.532289a26.827877 26.827877 0 0 0-37.926881-37.926881z" fill="#262B3A" p-id="9892"></path><path d="M828.575545 350.406751l36.806411 2.748325v379.395658c0 140.270266-294.345578 291.449266-328.065408 291.449266-36.785269 0-328.044267-151.200142-328.044268-291.449266V353.176217l39.850709-2.748325a637.27308 637.27308 0 0 0 128.769584-27.483247 916.01663 916.01663 0 0 0 137.94476-57.73596l21.500355-11.01444 24.523513 10.993299a765.302731 765.302731 0 0 0 137.944761 57.73596 439.013163 439.013163 0 0 0 128.769583 27.483247z" fill="#396AFC" p-id="9893"></path><path d="M538.563864 301.063752l-2.980875 1.522149a961.913653 961.913653 0 0 1-144.371612 60.463144l-1.205035 0.380537a684.819098 684.819098 0 0 1-137.965901 29.174524h-0.486242v339.925487c0 42.514469 45.727895 100.398416 125.492735 158.810887a690.210043 690.210043 0 0 0 159.867935 89.658809 393.538959 393.538959 0 0 0 56.425221-25.538279 859.908524 859.908524 0 0 0 103.717547-64.522209c80.124236-58.475894 126.063541-116.275277 126.063541-158.430349V392.540683a503.154834 503.154834 0 0 1-136.61288-29.597343 826.10413 826.10413 0 0 1-143.758524-60.082606l-4.228192-1.881546m-1.226175-46.890648l24.523512 10.993299a765.302731 765.302731 0 0 0 137.944761 57.73596 439.013163 439.013163 0 0 0 128.769583 27.483247l36.806411 2.748325v379.395658c0 140.270266-294.345578 291.449266-328.065408 291.449266-36.785269 0-328.044267-151.200142-328.044268-291.449266v-379.268812l39.850709-2.748325a637.27308 637.27308 0 0 0 128.769584-27.483247 916.01663 916.01663 0 0 0 137.94476-57.73596z" fill="#262B3A" p-id="9894"></path><path d="M492.180599 693.207408l-92.195724-75.536648a4.862421 4.862421 0 0 0-6.152019 0l-35.284261 29.597343a4.820139 4.820139 0 0 0-0.422819 6.976517l156.02028 165.745122a4.862421 4.862421 0 0 0 7.991283-1.501008 1077.364433 1077.364433 0 0 1 222.973699-319.989562 4.756716 4.756716 0 0 0 1.099329-5.28524l-6.595979-15.87686a4.777857 4.777857 0 0 0-7.082221-2.114096 1067.61845 1067.61845 0 0 0-240.351568 217.984432z" fill="#FFFFFF" p-id="9895"></path><path d="M517.613173 842.65285a26.024521 26.024521 0 0 1-18.857735-8.139269l-156.041422-165.766263a25.961098 25.961098 0 0 1 2.304365-37.546344l35.326543-29.597343a26.00338 26.00338 0 0 1 33.043319-0.253692l75.896045 62.175562a1094.065791 1094.065791 0 0 1 231.641492-205.976367 25.918816 25.918816 0 0 1 38.222855 11.754373l6.595979 15.85572a25.728548 25.728548 0 0 1-5.94061 28.603718 1058.971798 1058.971798 0 0 0-218.068996 312.674789l-0.105705 0.253692a25.961098 25.961098 0 0 1-24.01613 15.961424z m-132.236701-190.268635l127.184012 135.111872a1003.857317 1003.857317 0 0 1 75.621212-131.412204 1188.967557 1188.967557 0 0 1 85.853436-112.850441 1070.620467 1070.620467 0 0 0-165.385725 163.229348 21.140959 21.140959 0 0 1-29.872176 3.107721l-81.730949-66.953419z" fill="#262B3A" p-id="9896"></path></svg>