<?xml version="1.0" standalone="no"?><!DOCTYPE svg PUBLIC "-//W3C//DTD SVG 1.1//EN" "http://www.w3.org/Graphics/SVG/1.1/DTD/svg11.dtd"><svg t="1697973345147" class="icon" viewBox="0 0 1024 1024" version="1.1" xmlns="http://www.w3.org/2000/svg" p-id="32028" xmlns:xlink="http://www.w3.org/1999/xlink" width="200" height="200"><path d="M512 31.232l20.48 22.983111c0.796444 0.796444 148.138667 97.052444 353.507556 97.052445 7.793778 0 15.758222-0.113778 23.893333-0.455112l28.728889-0.967111v436.224c0 114.232889-94.151111 280.803556-416.597334 408.291556l-10.012444 3.982222-10.069333-3.982222C179.484444 866.929778 85.276444 700.302222 85.276444 586.069333V149.845333l28.785778 0.967111C338.204444 158.72 490.552889 55.239111 491.52 54.215111L512 31.232zM187.278222 398.108444H137.102222L210.830222 625.777778h55.296l47.104-164.181334L360.334222 625.777778h55.296l73.386667-227.669334H439.182222l-51.2 171.349334-47.786666-171.349334h-53.930667l-47.786667 171.349334-51.2-171.349334z m400.156445 0h-55.637334L437.589333 625.777778h56.661334l22.186666-52.565334h86.357334l22.186666 52.565334h56.661334L587.434667 398.108444z m300.032 0h-78.848c-26.624 0-47.274667 3.185778-62.008889 9.557334-14.620444 6.371556-25.827556 17.066667-33.564445 32.085333-6.144 10.695111-9.329778 33.109333-9.557333 67.242667V625.777778h48.128V531.911111H887.466667v-40.618667h-135.850667V479.004444c0.455111-17.976889 7.054222-29.582222 19.797333-34.816 6.371556-3.185778 20.821333-5.006222 43.349334-5.461333H887.466667v-40.618667z m-327.68 54.954667l32.426666 79.530667H527.36l32.426667-79.530667z" fill="#C3C3C3" p-id="32029"></path></svg>