<?xml version="1.0" standalone="no"?><!DOCTYPE svg PUBLIC "-//W3C//DTD SVG 1.1//EN" "http://www.w3.org/Graphics/SVG/1.1/DTD/svg11.dtd"><svg t="1703663270605" class="icon" viewBox="0 0 1260 1024" version="1.1" xmlns="http://www.w3.org/2000/svg" p-id="7394" xmlns:xlink="http://www.w3.org/1999/xlink" width="246.09375" height="200"><path d="M0 356.706462l630.153846 367.655384v262.498462L0 619.283692V356.824615z" fill="#67B1FF" p-id="7395"></path><path d="M1260.307692 356.706462l-630.153846 367.655384v262.498462l630.035692-367.576616V356.706462z" fill="#419EFF" p-id="7396"></path><path d="M1260.307692 360.093538L632.477538 0 11.894154 359.975385l619.52 365.292307z" fill="#E5F1FF" p-id="7397"></path><path d="M843.618462 413.892923l107.401846 67.111385-28.278154 17.526154-73.452308-43.795693-48.049231 26.269539 64.984616 37.966769-31.113846 17.486769-62.148923-37.927384-70.616616 43.795692-36.745846-20.48 178.018462-107.953231z m-114.136616-68.726154l38.675692 24.812308-124.888615 132.174769-38.636308-22.055384 35.682462-33.043693-59.470769-33.043692-59.47077 19.298461-38.636307-19.298461 246.744615-68.844308z m-11.894154 30.326154c-26.781538 8.270769-50.530462 16.502154-77.272615 24.772923l-26.781539 5.513846 44.583385 24.772923 14.887385-13.784615 22.291692-20.637538 22.291692-20.676924z m-271.241846-201.570461l37.415385 20.834461-74.830769 62.424615c-12.918154 8.900923-24.260923 19.495385-36.391385 29.26277l-12.484923 9.373538 69.041231-26.781538 109.331692-41.590154 31.665231 17.841231-66.166154 65.378461-11.264 10.712616-23.552 20.243692-11.224616 10.673231c23.000615-8.900923 43.126154-20.795077 66.166154-29.696l103.581539-44.62277 31.625846 20.834462-212.913231 89.166769-46.001231-26.781538 69.041231-65.378462c7.68-5.907692 15.36-13.193846 23.000616-20.046769l11.539692-9.688615a344.694154 344.694154 0 0 0-48.915692 20.834461L345.678769 328.546462l-43.165538-26.781539 143.832615-127.842461z" fill="#419EFF" p-id="7398"></path></svg>